<?xml version="1.0" encoding="utf-8"?>
<!DOCTYPE svg PUBLIC "-//W3C//DTD SVG 1.1//EN" "http://www.w3.org/Graphics/SVG/1.1/DTD/svg11.dtd">
<svg version="1.1" id="Layer_1" xmlns="http://www.w3.org/2000/svg" xmlns:xlink="http://www.w3.org/1999/xlink" x="0px" y="0px"
	 viewBox="145.9761 56.0419 1192.0845 1878.6053" enable-background="new 145.9761 56.0419 1192.0845 1878.6053"
	 xml:space="preserve">
<path d="M1304.02,131.99c-3.0701-0.8101-6.14-0.0601-8.96,1.1599c-4.1801,2.4202-6.8101,6.4901-9.8701,10.05
	c-10.9199,5.76-20.84,13.1901-30.6799,20.5901c-3.5601,2.6899-6.96,6.59-11.65,6.9199c4.74-3.12,9.64-6.12,13.75-10.08
	c2.8201-2.66,6.35-4.5,8.86-7.52c6.12-4.6801,12.53-9.15,17.86-14.7999c4.14-3.1201,8.1801-8.51,5.9801-13.9001
	c-1.78-2.8298-5.54-1.5599-8.29-1.7899c-4.63,1.3199-8.17,4.75-12.36,6.9301c-10.65,5.9299-21.9601,11-31.3101,18.96
	c-2.89,2.24-6.0599,4.25-9.74,4.79c-2.34,0.23-4.62,0.74-6.86,1.3799c-3.51,1.6901-6.92,3.6301-9.8199,6.24
	c-1.76,1.1602-3.5901,2.48-5.76,2.5701c-4.9601,0.22-9.9,0.99-14.86,0.5601c-2.0901-0.26-4.5801-0.5801-5.66-2.66
	c-1.6-4.08-2.4401-8.4801-1.9501-12.86c1.3-6.02,3.16-11.9401,5.6801-17.5901c2.48-7.4299,3.08-15.6399,0.78-23.1899
	c-1.3101-4.16-6.7101-5.25-9.74-2.24c-3.53,4-6.02,8.85-8.12,13.73c-1.64,4-4.8101,7.35-5.3,11.79
	c-0.88,6.4299-2.05,12.84-3.78,19.11c-1.71,5.09-4.49,9.85-4.98,15.2999c-2.38,11.03-2.49,22.3301-3.92,33.49
	c-0.84,6.74-1.6,13.99-5.84,19.5801c-2.51,3.58-6.47,5.6699-10.09,7.9299c-9.1,5.26-17.66,11.3701-26.1801,17.51l0.02,0.0801
	c-13.76,9.72-28.21,18.4299-43.2999,25.9099c-21.4301,10.7001-41.9901,23.0801-63.5701,33.48
	c-10.5499,5.5601-21.08,11.2201-31.0399,17.8c-25.9701,16.75-56.0601,25.01-83.73,38.3101
	C871.37,367.58,853.75,377.02,834.97,383.75c-10.99,4.12-22.78,5.3201-33.8799,9.08c-19.1602,5.8-36.2201,17.5601-56.05,21.2001
	c-1.29-0.1101-2.5801-0.1801-3.8601-0.2001c-1.24-1.0299-2.5299-2.0199-3.8199-2.97c1.62-2.0399,3.11-4.24,3.5599-6.85
	c0.6101-1.05,1.2301-2.0901,1.9102-3.0901c2.4199,0.6301,4.9299,0.8401,7.4099,0.4601c-0.1799,0.2999-0.54,0.9-0.71,1.2
	c0.09,0.66,0.1899,1.33,0.3,2c-1.8401,0.6901-1.4102,2.7201-1.6901,4.27l-1.24,0.09c0.61,2.0901,2.96,4.66,5.2699,3.1001
	c0.0801-0.67,0.24-2.01,0.3201-2.6801c1.28-0.9401,1.38-2.24,0.8501-3.65c2.2899-1.1899,1.5299-4.48,3.25-6.26
	c0.73-0.9399,2.5299-3.6599,0.1599-3.71c0.4399-0.24,1.3201-0.72,1.76-0.96c-0.01-2.3601,2.21-3.71,2.95-5.78
	c0.16,0.27,0.48,0.8201,0.64,1.09c6.9901,5.63,17.14,1.99,22.11-4.5399c0.8201-0.26,1.39-0.8201,1.71-1.67
	c2.8201-2.2001,4.5601-5.42,6.5801-8.3099c3.29-5.28,6.64-10.53,9.54-16.04c0.47,1.1299,0.9399,2.27,1.4199,3.4099
	c2.0801-3.3999,4.6201-6.83,8.2-8.75c-0.1299-0.9299-0.2599-1.86-0.3799-2.78c0.3101,0.03,0.9199,0.1101,1.22,0.1401
	c0.38-2.42,1.9-4.8601,1.28-7.3301c0.5601-1.8,1.1299-3.6,1.76-5.38c1.3799,1.7301,0.55,4.1,0.7,6.14
	c2.73-3.71,4.53-7.97,6.47-12.11l-0.47-0.5499c0.36-1.55,1.3301-3.1201,0.73-4.7301c0.5801-2.7799,0.97-5.58,1.22-8.4
	c0.28-1.9099,0.1501-4.08,1.6301-5.5499c2.1399-2.4501,3.27-5.51,3.8999-8.67c0.47-2.6499,3.13-3.97,4.65-5.99
	c1.01-4.4199,6.78-4.47,7.9501-8.72c1.33-4.75-1.6101-9.39-0.5701-14.23c2.3401-2.9301,2.6-6.6801,1.73-10.2001
	c-0.22,1.8199-0.4099,3.65-0.59,5.4801c-0.3199-0.54-0.9501-1.6301-1.26-2.1801l-0.28-0.03c0.76-4.0399-0.39-7.9401-0.9301-11.9
	c-0.21-1.6399-0.2899-3.35-1.0599-4.83c0.14-4.38-1.74-8.41-3.2899-12.39c-0.55-1.71-1.79-3.03-2.9701-4.3101
	c-0.4401-0.26-1.3199-0.76-1.7599-1.02c-0.25-1.46-0.5-2.9199-0.7201-4.3799l-0.1801-0.1001
	c-0.77-6.8599-5.3599-12.7899-10.95-16.58c-3.3-2.14-3.6499-7.0599-7.4299-8.64c0.77,1.9401,3.99,4.1101,1.2899,5.92l-0.5399-1.49
	l-0.7101-0.13c-0.5599-1.11-1.12-2.2-1.6801-3.28c-1.1899-1.3-2.21-2.8101-3.6599-3.8c-0.05-1.49-0.1001-2.96-0.15-4.4399
	c-0.85,0.8101-1.71,1.61-2.5399,2.4299c-1.05-0.8398-2.1001-1.6799-3.1201-2.5299c-2.1899,0.5299-3.1599,2.4401-3.3099,4.5499
	c-1.2201-0.6199-2.35-1.3799-3.54-2.03c-0.5-0.8298-1.11-1.5499-1.83-2.1399c-2.78-3.48-6.52-7.0701-11.28-6.96
	c1.12,1.75,4.1699,3,3.4399,5.3999c-1.6699-0.75-3.24-1.6899-4.8099-2.6l0.24-0.42c-3.2001-1.2899-6.36-2.83-9.83-3.23
	c2.6,1.4,5.26,2.73,7.85,4.1801c-1.12,0.36-2.23,0.73-3.33,1.1c-1.01-0.84-2.27-1.3101-3.49-1.7
	c-3.77-2.8801-8.3201-4.7-12.9401-5.65c2.34,1.2799,4.66,2.64,6.74,4.34c-0.4501,0.29-1.35,0.8601-1.7999,1.15
	c-2.0701-1.24-4.42-2.09-6.8101-2.3199c-2.3301-2.22-6.38-1.8501-8.37,0.6399c-3.13-0.21-6.28-0.83-9.42-0.46
	c-2.76,0.3201-4.8799,2.21-6.97,3.8401c-0.0601,0.6099-0.1799,1.8398-0.23,2.45c2.39-1.5,4.7-3.21,7.34-4.28
	c2.4301-0.97,5.02-0.0901,7.4601,0.4099l0.24-0.0698c0.6699,0.22,2.03,0.6499,2.71,0.8699c0.4099,0.47,1.23,1.41,1.64,1.8801
	c-1.08,0.2699-2.15,0.5399-3.2101,0.8198c-0.2999,0.4302-0.8999,1.3-1.21,1.7401c-1.8999,0.15-5.1499-1.78-5.99,0.75
	c0.8,0.2699,2.39,0.83,3.1899,1.1c-5.33,1.64-10.6799-1.0901-16.08-0.1899c-0.74,0.4099-1.47,0.8499-2.17,1.3099
	c-3.1899,1.5-6.3699,3.03-9.6499,4.33c-1.51,2.8301-4.53,3.15-7.42,3.1201c-0.5,0.2-1.49,0.5999-1.98,0.7899
	c-1.2999-0.09-2.59-0.16-3.86-0.21c-6.05-2.05-12.5801-0.01-18.75,0.4401c0.33,0.49,0.99,1.47,1.3201,1.96
	c4.7-1.29,9.5999-1.0701,14.22,0.49c-0.72,0.6799-1.4001,1.3899-2.05,2.1299c-0.7-0.0699-2.11-0.21-2.8101-0.2799
	c-4.83-1.61-11.26-1.62-14.6899,2.71c-1.51,1.8-4.4199,1.33-5.72,3.4c2.34,0.25,4.73,0.4,7,1.1699
	c-4.3401,1.3-7.3301,4.9102-11.1801,7.0901l-0.5599-0.13c-4.01,2.0299-7.67,4.8099-10.16,8.59c-1.9801,3.1801-5.7101,4.52-8,7.41
	c4.13-2.37,8.49-4.2001,13.15-5.25c-0.26,0.51-0.78,1.5399-1.03,2.0499c-2.3,0.9102-4.55,1.9701-6.41,3.6401
	c-1.0599,0.3398-1.9401,1.0898-2.87,1.6599l-0.35-0.1599c-3.9401,2.71-7.9501,5.73-10.03,10.1699c0.37,0.28,1.11,0.8301,1.4901,1.1
	C643.47,260.01,642.21,261.77,640.98,263.55c1.48-0.04,2.97-0.04,4.47,0.0399c-0.52,0.4601-1.5499,1.37-2.0699,1.83l-0.36-0.0499
	c-2.55,2.13-4.5801,4.76-6.6799,7.2999C636.88,272.63,637.96,272.55,638.5,272.51c1.96-2.0901,4.24-3.9399,7.14-4.45
	c-0.38,1.0399-0.76,2.08-1.13,3.1199c2.26-0.7899,4.5801-1.4099,6.95-1.84c-1.6799,1.4601-3.22,3.0699-4.8899,4.53
	c-4.4401,2.5499-7.3201,7.02-11,10.49c0.8499,3.9401-2.8301,6.25-4.52,9.2999c0.9099-0.1699,1.83-0.33,2.76-0.5
	c0.1699,0.49,0.51,1.4801,0.6799,1.9701c-1.1899,0.88-2.4399,1.73-3.3301,2.9301C627.73,299.99,625.03,303.23,623.79,306.97
	c1.45-0.6599,2.8899-1.36,4.33-2.0701c-0.25,1.04-0.5,2.0801-0.73,3.1301c3.3199-0.76,6.0199-2.9501,8.0299-5.64
	c0.24,0.15,0.7201,0.45,0.9701,0.59c-0.78,1.64-1.74,3.21-2.26,4.95c-3.92,2.79-2.7001,8-2.92,12.1001
	c2.1901-0.65,4.39-1.3101,6.5801-1.97c0,0.6799,0,2.0399,0,2.71c-0.9,2.33-1.3601,4.83-1.05,7.33c0.74,1.2201,1.9199,0.67,2.98,0.36
	c0.25,5.6801,1.76,11.17,2.77,16.74c-0.74,1.9-1.74,3.7-2.34,5.66c-1.66,1.42-3.2001,2.97-4.6901,4.5699
	c-0.02,1.4-0.03,2.8101-0.04,4.22c-0.8298,1.1201-1.6399,2.26-2.4099,3.4202c0.51-0.25,1.52-0.7401,2.03-0.9901
	c1.1599,2.7001-0.54,5.37-1.23,7.9501c0.33,0.53,1.01,1.61,1.3499,2.1399c-0.3499,0.4501-1.0299,1.3501-1.3799,1.79
	c-2.2,0.8301-4.7,4.6899-1.88,6.29c2.6,0.24,5.22,0.09,7.83,0.03c-2.13,2.58-2.4299,5.9099-3.1,9.0499
	c0.98-0.2599,1.98-0.5099,2.98-0.75c-4.0599,11.63-8.63,23.2401-15.47,33.55c-0.15,0.12-0.4701,0.36-0.62,0.48
	c-7.02,1.3199-13.77,3.72-20.79,5.0499l-0.45,0.4102c-4.47,0.3298-8.66,1.98-12.89,3.3298c-10.4501,2.9701-20.16,8.0901-29.38,13.76
	c-1.61,0.9401-3.16,2.01-4.3,3.52c-0.21,0.04-0.6199,0.1101-0.8199,0.1401c-0.13,0.1799-0.38,0.5399-0.51,0.72
	c-4.65,1.21-9.33,2.58-13.91,3.8199c-3.33,0.0499-7.12-0.67-9.97,1.5c-0.1699,0.2899-0.52,0.86-0.7,1.14
	c-8.79,1.8999-17.42,4.46-26.21,6.36c-9.3501,1.92-18.3201,5.49-26.5301,10.33c-3.52,1.27-6.52,3.54-9.43,5.8201
	c-1.21,0.9299-2.44,1.83-3.59,2.83c-3.62,2.52-6.67,5.76-9.78,8.86l0.03,0.15c-1.87,1.9601-4.1801,3.75-5.16,6.36
	c-3.44,3.64-5.71,8.22-8.04,12.6101c-1.06,2.74-2.31,5.46-2.92,8.3599c-0.54,1.8501-1.54,3.7001-1.32,5.6901
	c-1.86,5.23-1.39,10.87-1.68,16.33c0.5,5.5801,0.55,11.46,2.8799,16.65c0.04,0.3199,0.1201,0.9601,0.16,1.28
	c1.3,5.85,3.57,11.4501,6.05,16.9l0.27,0.04c1.19,2.6099,2.53,5.1499,3.89,7.6899c-4.01,4.88-6.3,10.9099-10.38,15.73
	c-2.44,2.79-5.07,6.02-9.1,6.2c-13.48,2.3401-27.18,3.9301-40.15,8.53c-11.45,4.27-22.91,8.5901-34.81,11.4399
	c-7.11,2.1802-14.52,3.6802-21.23,6.9801c-4.09,0.99-7.82,3.24-11.5,5.24c-13.12,0.49-26.17-1.5699-39.27-1.85
	c-5.52-0.21-12.13-1.67-16.64,2.4199c-7.73,5.3701-16.88,8.1101-25.32,12.1301c-2.83,1.4299-5.45,3.26-8.35,4.5399
	c-3.7599,0.11-7.56,1.12-10.56,3.4701c1.47,1.2699,2.14,3.0898,3.02,4.7699c4.08,3.78,10.28,3.7301,15.43,2.79
	c0.25,0.0199,0.75,0.0699,1,0.09c-0.11,5.8501,3.8,10.4,6.59,15.15c1.54,1.96,4.15,2.5499,6.36,3.4401
	c0.6,3.7799,1.62,8.25,5.51,9.96c3.78,2.03,7.68-0.76,11.25-1.96l0.92-0.5c0.6,0.2699,1.81,0.8199,2.42,1.0898l-1.14,0.4401
	c0.12,2.41-0.72,5.26,1.09,7.25c2.32,2.4801,7.05,3.11,9.37,0.3099c2.11-2.5399,3.89-5.49,4.52-8.75
	c1.21-5.5,3.97-10.6499,7.17-15.23c0.77,1.02,1.61,2,2.5,2.9401c-1.55,5.1-4.06,9.83-5.74,14.89l-0.44,0.1799
	c-0.9,3.0901-3.87,6.5601-1.43,9.67c1.73,2.99,6.2,2.8199,8.44,0.52c2.01-1.13,3.11-3.15,4.18-5.09l-0.02-0.0901
	c0.3-0.58,0.9-1.73,1.2-2.3099c1-1.9401,2.36-3.6801,3.13-5.7301l0.15-0.98l0.08,0.1801c2.5-3.61,5.4399-7.25,7.0099-11.2899
	c4.72-1.0801,9.83-1.3501,13.9901-4.0701c2.92-1.12,4.81-4.74,8.27-4.14c9.35,0.61,18.7,1.24,28.08,1.17
	c4.85-0.1001,9.67,0.8199,14.52,0.5c20.37,3.1299,41.9,2.1799,61.17-5.67c2.41-0.01,4.67-1.08,6.85-2l0.36,0.0399
	c5.28-2.46,9.56-6.5,13.85-10.3499c0.86,2.1399,0.38,4.46,0.28,6.7c-0.61,5.34,0.48,10.6799,0.05,16.03
	c-0.64,11.4299-2.98,22.6699-4.79,33.95c-1.26,5.14-1.83,10.4-1.61,15.6899c-0.6,5.3401-1.42,10.6801-1.45,16.0701
	c-0.34,6.69-1.62,13.64,0.58,20.16c1.84,7.22,7.54,12.51,10.75,19.08c2.53,5.75,3.57,11.97,4.63,18.12
	c-8.52,1.91-15.27,8.23-23.57,10.83c-3.02,0.88-5.91,2.26-8.25,4.41c-1.93,0.19-4.41,2.19-3,4.25c-1.23,1.48-2.45,2.97-3.54,4.56
	l1.18-0.3c-3.13,1.31-4.91,4.53-5.95,7.59l-0.74,0.24c-4.55,2.91-8.12,7.02-11.36,11.29c-8.88,9.92-15.6201,21.55-25,31.07
	c-2.16,3.25-4.83,6.14-6.96,9.42c-5.1,2.75-10.64,4.53-15.98,6.76c-10.7,4.2-21.29,8.69-32.1,12.6
	c-22.46,7.52-45.36,13.75-67.87,21.1c-10.13,2.59-20.04,6.01-30.08,8.96c-17.53,5.39-35.15,10.52-52.59,16.22l-0.49-0.33
	c-2.1801,1.08-4.3701,2.14-6.63,3.05c5.33,1.29,11.08-0.3,15.94-2.55c3.25-0.6801,6.41-1.79,9.53-2.94
	c0.83,0.86,1.83,1.7599,3.14,1.21c6.08-1.47,12.13-3.03,18.11-4.85c2.25-0.72,4.61-1.36,6.44-2.92c3.26-0.4,6.3-1.69,9.3-2.94
	c6.98,0.22,13.09-3.42,19.51-5.56c5.69-2.09,11.72-3.4301,17.05-6.42c29.9301-10.45,60.83-17.78,90.95-27.62
	c6.14-3.46,11.12-8.68,16.82-12.82c6.19-4.8,12.01-10.08,18.45-14.55c4.37-1.12,8.63-2.8,13.25-2.46
	c-5.93,5.86-12,11.83-16.29,19.02c-2.2401,1.61-4.92,2.43-7.44,3.5c-17.09,6.82-34.03,13.99-50.94,21.23
	c-14.55,5.78-28.59,12.7401-43.09,18.61c-3.32,2.09-6.9,3.68-10.4,5.41c-2.59,0.51-4.8799,1.89-7.1299,3.2l-0.26,0.01
	c-2.98,1.2-5.92,2.5-8.85,3.81l-0.78-0.35c-2.02,0.85-3.87,2.09-5.09,3.96c4.35,3.17,9.19-0.71,13.72-1.51
	c1.45-0.48,2.81-1.18,4.17-1.85c4.16-2.04,9.38-1.49,12.98-4.64c3.84-0.2,7.46-1.68,10.99-3.09l-0.78-0.2l1.25,0.3
	c5.39-2.35,11-4.17,16.3-6.72c6.07-1.04,10.71-5.68,16.74-6.8199c8.53-2.66,16.38-7.03,24.39-10.92c9.64-4.4,19.49-8.32,29.04-12.92
	c3.51-1.51,6.85-3.59,10.6801-4.17c-3.41,2.33-7.23,3.92-10.98,5.61c-14,6.19-27.94,12.54-41.58,19.5
	c-5.98,3.06-12.28,5.44-18.21,8.61c-3.9,2.15-8.19,3.65-11.7,6.46l-0.31-0.13c-5.67,2.84-11.39,5.55-17.04,8.4
	c0.41,0.1801,1.24,0.53,1.66,0.71c-0.97,0.04-1.94,0.08-2.9,0.14c-8.6,4.18-17.6201,7.41-26.42,11.12c0.01,0.18,0.04,0.54,0.06,0.72
	c-4.24,1.5-8.73,2.8-12.53,5.2c-3.24,1.04-7.3,1.48-9.6,4.14c-4.44-0.31-8.06,3-12.05,4.47l-0.39-0.16
	c-2.11,1.05-4.15,2.23-6.13,3.53c0.64,0.37,1.91,1.12,2.54,1.49c-1.19,0.46-2.37,0.94-3.54,1.44l-0.57-0.24
	c-1.64,0.7-3.2,1.5699-4.59,2.6899c3.75,0.73,7.56,0.03,11.34,0.3101c2.8,0.1899,5.23-1.46,7.71-2.5
	c7.26-3.48,16.04-3.96,22.45-9.0601c3.2-0.8799,6.08-2.55,9.03-4.0099c7.3199-3.7,15.04-6.73,22.44-10.13
	c5.59-0.06,10.43-3.14,15.83-3.89c-4.04,1.59-8.31,3.03-11.8,5.67c-1.89,0.17-3.56,1.09-5.23,1.9c-7.31,3.53-14.73,6.84-22.11,10.21
	c-7.56,2.26-14.73,5.96-22.09,8.88l-0.26-0.09c-2.17,0.77-4.21,1.87-5.95,3.39c2.48,0.06,5.04,0.08,7.35-0.97
	c4.35-1.84,8.98-2.83,13.54-3.96c1.35-0.2599,2.52-1,3.29-2.14c4.56-1.03,9.1801-2.56,13.12-5.13l0.76-0.02
	c7.24-2.84,14.45-5.86,21.86-8.25c11.0699-3.67,21.7599-8.38,32.73-12.34c1.33,0.17,2.68,0.33,4.03,0.5
	c-2.2,0.5699-3.5,2.16-1.7,4.1299c-6.17,2.8-11.85,6.52-17.92,9.4901c-5.29,2.07-10.4,4.56-15.21,7.59
	c-4.57,1.26-8.03,4.9-12.1,7.21c-2.33,1.25-4.43,2.86-6.49,4.51c-4.25,2.23-8.78,3.91-13.22,5.73c-3.53,1.46-6.6,3.85-10.22,5.11
	c-1.91,0.54-3.8,1.14-5.69,1.76c-3,3.83-8.09,3.91-12.19,5.85c2.38,0.28,4.89,0.35,6.93,1.8101c-0.83,0.1899-2.48,0.58-3.31,0.77
	c-3.69,0.65-7.31,1.81-10.7,3.43c2.89,0.14,5.78-0.14,8.65-0.52c-1.4,1.05-2.8,2.1-4.22,3.13c0.2,0.41,0.61,1.23,0.81,1.64
	c-1.07,0.53-2.13,1.09-3.1801,1.66c3.08,0.03,6.29-0.39,9.1801,0.97c-12.16,4.02-24.47,7.62-36.67,11.53
	c-5.49,1.38-10.83,3.2999-16.22,5.03c-3.25,0.86-6.45,1.89-9.58,3.12c-0.59,0.27-1.76,0.8099-2.35,1.08
	c-1.5,1.11,1.62,3.71,2.37,5.1901c1.98,0,3.96,0.0099,5.94,0.0299v-0.9199c1.61-0.04,3.1-0.7101,4.55-1.3301
	c3.23-0.97,6.51-1.95,9.51-3.49c1.79-0.12,3.58-0.27,5.36-0.4399c-2.11,1.12-4.29,2.1599-6.07,3.7999
	c4.17,2.11,8.66-0.89,13.02-0.6799c4.35,0.1799,8.82-0.98,12.55-3.22c7.37,0.2899,14.26-3.2001,21.54-3.9901l-0.3199-0.61
	c4.05-0.14,7.92-1.3799,11.8199-2.33c-0.36,0.33-1.0699,0.98-1.43,1.31c-0.39,0.29-1.18,0.86-1.58,1.15l-0.53,0.27
	c-0.44-0.16-1.31-0.46-1.75-0.62c-6.6,1.97-13.33,3.91-19.49,7.04l-0.85,0.01c-0.65,0.2999-1.96,0.89-2.61,1.1899l0.05,0.13
	c-2.0699,0.67-4.2,1.24-6.16,2.22c-7.2,1.2201-14.48,3.88-19.59,9.3401c-1.95,0.22-3.95,0.4399-5.62,1.58
	c1.21,1.24,2.99,1.21,4.59,1.41c-0.11,0.4-0.33,1.21-0.44,1.61c-0.63,0.16-1.88,0.49-2.51,0.66c-0.73,3.71-5.42,4.8899-5.42,8.86
	c3.73,0.13,7.76,0.4199,10.91-1.98c6.52-1.9601,12.82-5.8701,19.89-4.9601c-3.06,0.73-6.24,1.3301-8.79,3.3101
	c-3.81,0.6699-6.85,3.1699-9.8,5.5c-2.1299,1.7999-5.41,2.0499-6.66,4.85c-2.69,1.24-7.45,2.86-6.15,6.64
	c-0.5-0.9401-0.91-1.87-1.35-2.79c-0.39,1.17-0.77,2.38-1.16,3.58c1.84,0.0601,3.69,0.14,5.53,0.2301
	c-0.04,0.4399-0.14,1.3199-0.19,1.76c1.39,1.23,2.7,2.5499,4.23,3.63c3.67,1.37,8.32-3,11.2,0.6299
	c-0.24,0.54-0.73,1.6201-0.98,2.16c1.71-0.45,3.36-1.0599,4.96-1.77c-0.6801,1.6001-1.34,3.2201-2,4.8501
	c2.93-0.4701,5.61,1.35,8.4,1.24c1.44-1.9401,2.41-4.3301,4.61-5.55c0.17,2.63-1,5.24-0.45,7.86c2.49,2.4,6.5099,2.35,8.98,4.88
	c1.8,1.89,3.97,3.34,6.52,4.05c1.77-1,3.61-1.9401,5.66-2.16c-0.27,0.79-0.8,2.37-1.07,3.16c6.73,0.34,10.66-6.39,16.25-8.9601
	c-1.15,3.76-1.97,7.62-2.34,11.54l-0.34,0.52c0.98,0.6799,1.96,1.39,2.94,2.11c0.46-0.52,1.36-1.5599,1.81-2.0699
	c0.48,0.23,1.44,0.6799,1.92,0.9099c-0.8799,1.8401-2.2,3.42-3.19,5.2101c-2.77,1.73-5.02,4.13-7.27,6.47
	c-2.1,2.15-4.86,3.77-6.23,6.5499c-1.65,0.13-2.27,1.52-2.78,2.89c2.61,1.61,4.57,4,5.61,6.89c3.85-1.87,7.09-4.83,9.86-8.0399
	c1.39,0.24,2.78,0.48,4.17,0.73c-0.65,1.47-1.29,2.95-1.9,4.45c0.93,1.22,1.66,2.5601,2.27,3.98c0.57,0.17,1.71,0.52,2.27,0.6901
	c0.19,1.0399,0.38,2.1,0.57,3.1699c2.1,0.5701,4.21,1.12,6.33,1.66c-0.06,0.46-0.18,1.39-0.24,1.85c1.79,0,3.81,0.1001,4.99-1.5399
	c3.54-1.63,6.43-4.4701,9.11-7.25c2.02-2.17,4.75-3.5901,7.79-3.2001l0.54,1.0901c-2.77,2.6-3.67,6.4199-5.85,9.4399
	c-0.42,1.89-1.63,3.42-2.72,4.97c2.98-2.84,5.95-5.7,8.71-8.74c2.26-0.27,4.35-1.1899,6.34-2.25
	c0.7401,0.55,1.4901,1.11,2.25,1.6901c2.84,0.0499,5.69,0.08,8.53,0.1c0.13,0.58,0.39,1.75,0.52,2.34c0.8-0.12,1.6-0.23,2.41-0.33
	c-0.56-0.28-1.66-0.8401-2.22-1.11c0.3199-0.3101,0.96-0.9301,1.28-1.24l0.13,0.6c1.62,1.4399,3.43,0.0399,4.99-0.76
	c3.94-2.63,6.19-7.0801,10.07-9.78c2.6-2.02,5.61-3.71,7.49-6.48c1.24-0.67,2.48-1.35,3.75-1.97c-0.55,3.5599-3.77,5.98-5.12,9.26
	c-3.32,2.62-3.73,8.0199-0.66,11.01c-3.47,5.12-6.45,10.6399-8.89,16.3199c0,3.55-1.62,6.63-3.6,9.48
	c4.84-5.52,8.77-11.79,12.6801-17.98l0.12,0.02c4.41-6.51,8.66-13.15,13.26-19.53c1.28-1.6801,2.56-3.36,3.81-5.04
	c1.2,1.5,2.66,4.28,4.77,2.12c0.21,0.1801,0.65,0.55,0.87,0.7301c-1.1,1.59-2.4,3.2-1.8,5.2999c-2.82,3.74-6.47,6.9301-8.14,11.4401
	c-0.41,4-4.24,6.25-6.48,9.23c-0.38,0.0699-1.15,0.21-1.53,0.28l-0.4-0.37c-0.92,1.5499-0.77,3.1,0.56,4.37
	c-0.99,3.7999-5.95,4.46-6.9,8.2899c2.11-0.87,4.2401-1.71,6.4-2.48c0.67-0.66,1.38-1.27,2.12-1.83
	c1.03-1.4501,3.14,1.89,1.3,2.2799c-1.65,1.3301-3.32,2.6801-4.49,4.4901c-2.17,3.34-5.6,5.5099-8.15,8.5299
	c3.23,0.3201,7.45-1.21,8.38-4.5299c4.13-2.15,7.08-5.9301,11.1801-8.14c-2.28,2.51-4.07,5.4099-6.3701,7.9099
	c-0.91,1.27-1.81,2.5601-2.72,3.8601c-0.77,1.4099-1.4,2.8799-1.95,4.4199c0.99-0.26,1.98-0.5,2.98-0.73
	c0.1801,1.24-0.3799,3.25,1.3101,3.7c3.92,0.88,7.85,2.38,11.93,1.87c0.59,1.53,1.17,3.0801,1.75,4.64
	c2.68-0.5499,5.38-1.01,8.09-1.4099c0.2,1.46,0.4,2.9199,0.6,4.4099c2.5099-0.02,5.03-0.08,7.55-0.26
	c0.19,0.62,0.59,1.8401,0.78,2.4601c1.12-0.55,2.25-1.0801,3.37-1.6l-0.12-1.6201c3.02-1.0399,4.27-4.4099,5.75-6.98
	c1.98-1,3.99-1.95,6.03-2.83c0.56,1.99,1.14,4,1.73,6c2.13-0.22,5.21-3.4,6.62-1c-0.85,4.87-6.02,7.9-5.92,12.9399
	c2.26-1.3899,5.05-2.9299,5.32-5.87c1.98-2.23,3.94-4.48,5.83-6.7899c0.04,0.5399,0.12,1.61,0.16,2.15
	c-1.18,1.6899-2.09,3.5399-2.88,5.45c-0.64,1.35-1.25,2.7-1.82,4.09c-0.24,0.9601-0.46,1.9301-0.67,2.92
	c0.97,1.21,1.81,2.52,2.55,3.91c3.15,0.62,6.34,1.0299,9.53,1.3899c1.93,2.1001,4.24,3.8101,6.43,5.64
	c-1.76,2.53-3.91,4.9701-4.39,8.14c4.45,0.0801,4.54-5.2899,7.84-7.03c-0.25,2.7201-0.7,5.4301-1.17,8.14
	c1.61,1.3301,2.38,3.24,3.01,5.1901l-0.27,0.35c3.85-0.48,8.05,0.55,10.92,3.25c0.69,1.02,1.38,2.08,2.46,2.78
	c2.22-0.15,3.5-2.0901,4.91-3.52c0.22,1.52,0.45,3.0599,0.69,4.62c2.24-0.0601,4.38-0.72,6.5-1.4c1.85-1.15,2.11,1.6,2.82,2.63
	c6.1-4.42,5.41-13,10.1-18.42c4.45,0.03,1.71,6,2.84,8.8201c1.69,1.02,3.03-1.16,4.43-1.78c0.7,1.3,1.03,2.9401,2.17,3.98
	c2.53,0.25,5.03-0.5599,7.5499-0.77c-0.1799,0.9801-0.3599,1.9801-0.5299,2.9901c0.2699,0,0.7999,0.0099,1.0699,0.0099
	c0.03-0.7599,0.0901-2.2799,0.1201-3.0399c2.3298,0,4.6899,0.23,7.0199-0.12c1.91-0.5701,2.99-2.4,4.2301-3.8
	c0.2599,1.51,0.49,3.11,1.25,4.5c0.24,1.11,0.5999,2.1901,0.95,3.3l0.1799,0.1899c3.4,16.4401,6.47,33.02,11.45,49.0801
	c2.79,8.46,6.5701,16.5599,10.9501,24.3099c5.0599,9.59,10.25,19.48,18.51,26.76l0.08,0.33c4.5801,3.92,9.29,7.8401,14.5901,10.76
	c1.6899,1.52,4.8199,2.23,4.8999,4.9401c1.55,10.76,3.8501,21.39,5.51,32.13c1.72,18.9399,1.3501,37.99,0.5901,56.98
	c-0.51,27.67-1.91,55.33-1.9001,83.01c0.7001,26.64,0.1301,53.3099,1.2401,79.9399c-0.4701,22.01-0.0699,44.12-3.01,65.98
	c-1.0699,8.53-4.2201,16.6801-4.6801,25.3101c-1.1399,3.79-1,7.87-1.6699,11.78c-0.77,15.13-4.05,29.97-5.8501,44.99
	c-1.1599,9.3199-1.25,18.72-1.77,28.09c-0.1199,2.78-1.1399,5.51-0.7899,8.3201c-2.01,7.0699-4.26,14.0699-6.3199,21.12
	c-4.0601,6.6699-7.1501,13.8999-10.3901,21l-0.1899,0.0299c-2.28,5.1801-4.97,10.17-7.09,15.4301l-0.2301,0.15
	c-5.0299,8.33-9.0999,17.23-11.5999,26.6599c-1.3601,4.1801-3.29,8.14-4.8101,12.26c-0.04,0.8301-0.12,2.49-0.1599,3.3201
	c1.8699,5.7999,9.5798,5.48,14.21,3.5c0.5599-0.4301,1.6799-1.29,2.24-1.72c0.05,1.9099,0.5,3.85,1.59,5.48
	c3.17,2.86,8.47,3.1899,11.3099-0.3c2.91,1.97,7.1201,1.7001,9.5801-0.89c2.3101-2.1,3.1599-5.1799,4.03-8.0499
	c0.6299-3.42-0.4501-6.9501,0.78-10.26c0.24,0.13,0.72,0.4099,0.96,0.5399l-0.45,1.1901c0.0698,2.42,0.22,4.86,0.4199,7.3099
	l0.11-0.51c-0.09,3.0601,3.77,3.76,6.16,3.8701c3.54-1.4401,6.45-4.42,6.73-8.3701l0.9199,0.3601l0.0901,0.75
	c1.4299,2.1599,4.38,1.3199,6.5701,1.36c6.5999-4.1901,7.5798-12.5,11.1499-18.8301c1.3401-1.2999,2.6699-2.62,4.27-3.59
	c6.22-3.85,9.96-10.4299,13.53-16.58c5.46-8.87,8.84-18.8101,13.99-27.8301c4.26-7.5499,8.1399-15.2899,11.98-23.0399
	c4.54-9.5,10.05-18.49,15.5801-27.4301c6.21-9.36,13.1499-18.53,16.5898-29.36c1.04-4.83,2.6301-9.87,1.0701-14.77
	c-0.9099-5.1699-2.37-10.35-5.4399-14.6699c-0.3-0.75-0.6201-1.4501-0.9601-2.1101c-0.7799-1.11-1.5099-2.1799-2.22-3.2799
	c-2.9701-3.5801-7.4401-5.05-11.5-6.9701c-1.89-2.33-3.33-5.1499-3.03-8.23c0.55-6.2899,3.51-11.99,5.03-18.0499
	c3.0399-11.5701,5.62-23.26,8.17-34.9401c4.52-22.38,10.0599-44.59,17.79-66.09c5.8799-16.16,14.5199-31.11,20.97-47.02
	c4.49-12.4301,6.26-25.66,7.1099-38.78c1.74-22.02-0.6899-44.1799-4.8099-65.7999c0.2999,0.0299,0.89,0.11,1.1901,0.14
	c20.3199,11.9199,41.79,21.73,62.7,32.5599c17.6599,8.11,34.88,17.15,52.3301,25.66c0.7,0.75,1.6699,1.15,2.5599,1.74l0.89-0.38
	l-0.72,0.47c16.03,8.03,31.1399,17.91,44.5599,29.8301c7.27,6.71,16.2101,11.1299,23.9501,17.22
	c4.5898,4.15,9.8799,7.4299,14.8799,11.0599c6.1801,4.78,12.8,8.9601,19.54,12.91l0.49,0.01
	c7.6101,4.5599,15.5701,8.75,22.0801,14.9c7.0399,6.3199,13.48,13.27,20.3999,19.73c8.1001,7.6899,13.8701,17.2999,19.75,26.6799
	l-0.1,0.2101c1.75,2.27,3.51,4.5599,5.04,7.02c1.48,2.4199,3.17,4.73,4.59,7.22l0.05,0.02c0.8,3.8999,2.1199,7.77,4.36,11.12
	c0.66,1,1.65,1.5399,2.95,1.61c2.2101,1.74,4.9501,0.88,7.3199-0.01l-0.0399-0.23c3.0299-2.7101,4.01-6.86,3.98-10.77
	c0.37-4.78-0.92-9.53-3.26-13.66c-2.8199-4.14-2.61-9.5399-6.2-13.26c1.34-2.1799,3.2599-4.2799,3.15-7.01
	c0.6399-9.99-2.8301-19.6799-6.67-28.74l-0.38-0.33c-1.36-9.8101-4.1599-19.5-8.75-28.26c-4.6899-10.4-9.63-20.6899-14.0801-31.2
	c-3.1599-8.2301-6.3398-16.6801-6.7699-25.5801c-0.6801-9.7-1.66-19.61-5.2401-28.72c-0.5898-4.7-3.75-8.67-6.6399-12.25
	c-1.74-1.54-4.04-2.1801-6.1899-2.78l-0.1301-0.14c-4.46-1.1899-9.09-1.49-13.6799-1.2699c-3.49,0.23-7.01,0.6-10.22,2.0699
	c-5.6801,2.29-11.3301,5.4301-17.66,5.04c-3.7001-0.52-7.4801-1.3501-10.52-3.63c-6.0399-4.49-10.8099-10.4401-16.8199-14.9601
	c-16.3801-13.26-32.1901-27.21-47.8701-41.2899c-12.6599-12.01-24.9099-24.5601-35.46-38.49c-5.6899-7.39-11.24-14.9601-17.78-21.62
	l-0.1699-0.4801c-3.75-4.0499-8.29-7.24-12.8501-10.2999l0.01-0.12c-14.3199-10.13-29.3799-19.4601-45.83-25.7001
	c-10.25-5.1499-21.63-7.99-32.85-10.4299c6.4299-21.92,16.49-42.54,24.6799-63.8101l0.27-0.15c0.5701-1.1699,1.1401-2.34,1.74-3.49
	c0.3101-0.97,0.8801-1.88,0.8601-2.8999c1.3899-2.8401,2.5499-5.78,3.7-8.7101c1.15,2.77,1.64,6.12,4.05,8.15
	c2.1399,3.76,2.1899,8.3101,3.59,12.37c1.3199,1.85,2.97,3.4301,4.7899,4.8101l-0.2799,0.86c1.5199-0.7001,2.5099-2.0701,3.48-3.36
	c0.7899,0.5599,1.58,1.14,2.39,1.73c2.08-0.85,4.21-0.14,6.33,0.15c2.02-1.4301,2.8-3.99,4.15-5.9801
	c0.4399,0.4301,1.3301,1.29,1.77,1.7201c1.5601,0.3999,3.11,0.89,4.6399,1.46c-0.0199,2.76-0.9399,5.4399-0.8699,8.23
	c4.5-1.64,3.5-7.37,5.96-10.73c2.5901,2.85,1.9399,7.1,3.1599,10.5699c1.0801-0.1499,2.1802-0.2699,3.28-0.3899
	c1.3101,3.6799,5.28,1.83,8.0701,1.37c-0.0701,0.51-0.22,1.5299-0.3,2.0399c0.74-0.3099,1.49-0.61,2.25-0.89
	c-0.11-0.4399-0.3199-1.34-0.4299-1.7799c3.74-0.9701,7.4199,0.0599,10.8101,1.6699c2.1799-0.9299,4.1899-2.21,5.9099-3.85
	c1.5,1.05,2.8401,3.04,4.9199,2.76c2.1602-0.61,4.1301-1.75,6.1501-2.71c0.95,0.59,1.8999,1.2,2.8699,1.83
	c2.6201-2.6801,3.22-6.33,2.77-9.9301c1.4301-1.5599,2.89-3.09,4.3601-4.6c1.77,0.67,3.3499,1.74,4.6599,3.15
	c0.22-0.2,0.67-0.61,0.89-0.8099c-0.52-1.65-1.1-5.2201,1.7001-4.15c3.26,0.4,2.3799,4.86,5.4399,5.45
	c-0.3-1.08-0.61-2.14-0.91-3.1899c0.4-0.3101,1.2001-0.92,1.6-1.23c-0.96-1.8601-1.54-6.2401,1.5801-6
	c1.71,2.5499,2.05,6.1399,5.24,7.5699c1.25,3.3199,3,6.63,6.0601,8.64c0.1399,0.49,0.4199,1.47,0.5599,1.96
	c0.9-0.7999,1.7999-1.62,2.6901-2.4399c2.3099,0.2,4.6299,0.33,6.96,0.38c0.3799-1.9401,0.75-3.86,1.08-5.78
	c2.51,1.08,5.27,0.98,7.9601,0.96c-0.03-0.38-0.0901-1.13-0.1301-1.51c0.8801-1.2899,1.5801-2.6799,1.97-4.1799
	c1.51-0.1901,4.1501,1.36,4.8101-0.7001c1.15-2.89,4.9399-1.83,7.3-2.99c-0.0701-1.59-0.1201-3.1899-0.15-4.75
	c0.61-0.1899,1.84-0.58,2.4601-0.77c-0.1201-2.34-0.6702-4.6-1.78-6.6499l-0.5901,0.0199c-1.3-2.86-2.4199-5.86-4.58-8.1899
	c-0.2101-0.99-0.41-1.97-0.59-2.9401c2.6099,3.89,6.1199,7.2401,9.9399,9.9601c0.6001,3.33,4.3101,5.09,7.41,5.7
	c-0.02-0.63-0.0699-1.88-0.09-2.51c-2.17-1.88-4.1201-4.0599-6.6801-5.39c-1.99-2.6499-4.0599-5.23-6.35-7.61
	c0.77-1.59,2.6499-3.3099,0.8999-4.95c0.6401-0.02,1.9301-0.0601,2.5701-0.08c-0.45-0.51-1.35-1.53-1.8-2.04l1.78,0.97
	c0.24-2.4399-0.99-4.2-2.73-5.62c0.48,0,1.4399,0.01,1.9099,0.01c-0.3899,2.86,2.55,1.6801,4.3101,1.87
	c0.7-4.74-1.9099-8.86-4.01-12.85c0.4301-1.9-1.23-3.75-1.75-5.54c0.6001,0.17,1.8101,0.52,2.41,0.6901
	c0.7001,1.21,1.37,2.4099,2.03,3.6699c0.7,1.5,1.92,2.5801,3.36,3.38c0.22-0.64,0.6499-1.9199,0.87-2.5599
	c0.84,0.5,1.7001,1.01,2.5699,1.5399c-0.1-2.86-0.3799-5.7-0.85-8.51c0.51,0.0701,1.55,0.2201,2.0699,0.3l-0.24-0.5699
	c0.42,0.2,1.26,0.62,1.6801,0.83l0.17,0.8l0.46-0.02c1.47,3.5,3.79,7.4,7.28,9.14l-0.49,1.21c2.5601-0.51,5.03-1.66,7.7-1.53
	c0.1799-2.08,0.3401-4.15,0.49-6.21c1.6801,0.08,3.3701,0.1799,5.0701,0.27c0.3199-1.04,0.6599-2.0601,1-3.0701
	c2.73-0.48,5.59-1.83,8.3799-1.03c3.5601,2.15,5.3201,6.02,7.28,9.5c3,1.3201,5.6401,3.76,9.0901,3.77
	c2.34,0.38,6.29,1.89,6.99-1.62c1.2-1.97-0.5801-3.73-1.5901-5.27c-1.7999-2.6-3.34-5.3899-5.4099-7.7799
	c0.73-3.4401-0.2-7.2201-3.4-9.0601c-1.7101-4.1699-4.23-8.04-7.16-11.45c-4.04-5.0801-6.97-11.14-11.78-15.55
	c-1.8899-4.14-5.9199-6.88-7.6599-11.1c-1.53-4.02-4.76-6.98-7.0901-10.5c-0.9199-1.08-1.52-2.58-2.7999-3.23l-0.5499-0.78
	c0.1499-1.9-0.4001-3.6899-1.1201-5.4c0.5-0.35,1.52-1.0499,2.03-1.4099c1.4099,1.6499,2.98,3.1699,4.48,4.7699
	c4.13,2.9801,7.64,6.75,11.9399,9.51c2.5,1.5601,4.1602,4.03,6.1201,6.1801c0.84,1.2999,2.34-0.22,3.36-0.4
	c1.6901,1.5601,3.6801,2.75,5.5,4.17c1.66,0.46,3.38,0.6499,5.0399,1.22c1.79,1.36,3.02,3.4299,5.0701,4.48
	c2.63,3.11,4.49,7.5601,8.73,8.7c2.53,1.88,3.8301,4.89,6,7.14c1.6699,0.3501,3.39,0.4401,5.11,0.53
	c0.9501,0.77,1.88,1.67,3.08,2.12c1.79,1.23,3.3401-0.83,4.9401-1.46c1.62,0.5599,3.77,1.37,3.8099-1.1901
	c1.1301,0.4701,2.25,0.92,3.4001,1.42c1.1199-1.3199,2.3099-2.5699,3.5699-3.74c-0.29-0.46-0.87-1.39-1.17-1.85
	c-1.05-1.4701-2.1699-2.88-3.52-4.05c-0.73-2.37-2.5699-4.08-4.1199-5.9c1.1399,0.01,2.3799,0.52,3.5299,0.13
	c0.6-1.2-0.5699-2.26-0.9401-3.2899c-3.46-4.4801-5.5898-9.92-9.8199-13.77c-1.33-1.6-3.58-3.01-3.08-5.37
	c0.86-2.12,2.97-0.5,4.5699-0.4701c2.1801-0.48,4.33-1.0599,6.58-1.25c-0.2999-1.7699-1.4399-3.0499-2.73-4.1599
	c-1.2-0.9301-2.3899-1.87-3.46-2.9c0.11-0.59,0.3201-1.76,0.4299-2.34c1.6602,0.24,3.3101,0.61,4.9701,0.9399
	c-1-3.47-4.4-5.83-4.62-9.53c-4.8601-4.61-9.9-9.0199-14.8-13.5699c1.91-0.04,3.8101,0.17,5.72,0.4
	c-1.6799-2.5-4.24-4.13-6.5699-5.92l-0.4401,0.22c-4.08-2.8199-7.5299-6.38-11.3899-9.4199c-0.74-0.8301-1.65-1.38-2.74-1.63
	c-1.73-2.35-4.29-3.86-6.46-5.73c-4.54-3.69-7.76-8.95-13-11.74c2.1099-0.92,4.2999-1.19,6.49-0.29
	c1.0199,1.8,2.4199,3.36,4.21,4.44c0.1899-0.71,0.58-2.14,0.78-2.85c2.0599-0.72,4.02,1.66,6.1399,2.01
	c0.6101,0.86,1.54,1.49,2.64,1.65c0.91,1.09,1.86,2.16,2.84,3.23l-0.77,0.13c6.0601,1.26,10.3201,6.39,16.04,8.42
	c1.1801-0.3,2.3401-0.67,3.49-1.1101c3.26,2.4801,6.8301,4.6901,10.8901,5.5701c-0.3601,3.0599,3.3099,2.63,5.2,3.78
	c3.04,1.6699,5.97,4.01,9.6899,3.73c-0.62-1.3301-1.2-2.64-1.84-3.9301c4.33,3.05,8.89,5.79,13.35,8.65
	c2.8,3.16,7.23,4.4,11.05,2.27c-0.55-1.14-1.0901-2.29-1.5901-3.42c0.46-1.9,0.3601-3.86,0.4401-5.7799
	c0.35-1.8701,1.49-3.4801,2-5.3c-1.02-2.59-3.12-4.5-5.13-6.3c1.72-0.71,3.4399-1.4099,5.1699-2.11
	c-0.5599-0.85-1.1199-1.7-1.6499-2.53c0.73-0.07,2.1899-0.21,2.9199-0.29c1.5,1.0099,3.04,2.02,4.8,2.55
	c1.55,1.6,3.6899,2.16,5.8401,2.45c0.8198-2.35,1.5798-5.09-0.5901-6.97c-1.61-2.86-1.5901-6.53-3.5601-9.07
	c-1.53-1.01-2.9299-2.22-4.58-3c-0.08-0.8-0.26-2.41-0.35-3.22c-3.02-1.4-6.23-2.37-9.12-4.04c-3.83-1.97-7.4301-4.7-11.78-5.36
	c-1.33-1.39-3.2699-1.87-4.9501-2.64c-9.4399-4.08-18.8398-8.39-28.6799-11.39c-2.8899-1.9901-6.23-3.13-9.37-4.61
	c-10.0199-4.75-20.23-9.1-30.61-12.99c1.8-2.33-0.8-3.87-2.4399-5.06c0.02-1.46-0.7101-3.47,1.2999-3.86l0.9301,0.52
	c5.3099,3.62,12.22,2.87,18.24,1.89c4.34,0.39,8.75,0.05,13.0601,0.89c-2.8501-1.57-5.5701-4.04-8.7301-4.63
	c-4.0399-1.96-8.13-3.81-11.98-6.13l-0.2999,0.93c-0.3801-1.34-1.9801-1.49-2.9801-2.16c-9.5699-4.51-18.87-9.55-28.0499-14.78
	c-5.72-4.58-12.28-7.9-18.17-12.22c-1.61-1.12-3.2201-2.46-5.2001-2.78l0.4301,0.71c-2.16-2.33-5.11-3.88-7.84-5.45
	c1.73,0.86,3.51,1.6,5.37,2.19c3.0599,1.01,5.0399,3.8,8.0499,4.97c4,1.87,7.6501,4.57,11.97,5.72
	c1.8601,0.51,3.6401,1.32,5.3501,2.25l0.39-0.12c2.25,1.67,4.9,2.56,7.5399,3.43c3.0801,1,5.72,3.08,8.91,3.83
	c1.4,2.05,3.9501,2.51,6.15,3.28c3.45,0.98,6.52,2.8701,9.73,4.44c1.27,2.45,4.25,2.83,6.62,3.65c0.1-1.2,0.67-2.17,1.7201-2.78
	c3.7899,1.76,7.7,3.84,12.0399,3.54c-0.2899,0.37-0.87,1.11-1.16,1.48c3.3301,0.44,6.5701,1.36,9.75,2.47
	c3.0601,1.93,6.8,2.47,10.3501,2.74c-0.22-0.64-0.65-1.93-0.8701-2.58c0.6901,0.01,2.0701,0.01,2.76,0.01
	c2.6201,1.26,5.3301,2.36,8.03,3.48c3.29,2.24,7.25,0.9,10.77,0.02c-1.05-0.66-1.98-1.97-3.22-1.99
	c-0.9399-0.56-1.92-0.88-2.9299-0.96c-5.55-2.53-11.2101-4.81-16.8301-7.16l-0.27,0.05c-41.4099-17.36-82.99-34.37-124.46-51.59
	c-0.89-0.34-1.6201-0.86-2.1899-1.58c-6.6201-8.36-13.1901-16.76-19.8101-25.12c-2.3201-2.86-3.78-6.3101-6.2-9.08
	c-1.3-3.78-4.0901-7.12-7.7001-8.85c-0.88-1.67-1.7999-3.3199-2.7201-4.96l-1.3099,0.7c0.0699-0.72,0.1901-2.15,0.26-2.8701
	c1.33,1.6801,2.12,4.76,4.86,3.32c-2.24-2.88-5.1499-5.3-6.6-8.72c-1.5699-4.35-6.1-7.4-10.62-7.78
	c-6.25-7.2599-11.5701-15.3-18.13-22.27l-0.39-0.39c-0.55,3.04,1.27,5.79,1.13,8.8c-0.6801-0.51-2.0399-1.52-2.72-2.03
	c-0.08-0.39-0.2201-1.16-0.2999-1.55l-1.01-0.15c0.4299-1.57-0.1501-2.23-1.7301-1.98c-0.1-1.3199-0.96-2.53-2.1-3.1299
	c-5.23-7.9-12.15-14.6-17-22.79h-0.22c-0.77-1.14-1.51-2.26-2.27-3.38c-3.5701-4.73-5.9-10.2-8.73-15.35
	c-4.04-6.98,0.71-15.77-3.51-22.71c-4.53-12.36-9.1899-24.7699-12.66-37.4301c-1.0399-6.8199-3.23-13.4199-3.83-20.2999
	c-0.3101-1.5699-0.13-3.33-0.96-4.7101C710.38,669.11,710.26,661.8,710.49,654.49c0.0701-1.3201,0.55-2.61,0.28-3.9199
	c0.02-0.6301,0.05-1.9001,0.0601-2.53c1.1099-4.1801,1.5299-8.6801,3.9099-12.4c5.03-7.89,7.96-16.9401,13.36-24.61
	c0.91-1.52,2.14-2.91,2.59-4.65c2.1301-2.09,4.16-4.35,5.8101-6.84c2.15-1.99,3.64-4.54,5.11-7.04
	c5.52-4.05,10.65-8.61,15.9401-12.9299c12.03-13.5601,23.3699-27.73,35.6199-41.0901l0.9401,0.4399
	c-0.72-6.4299-4.9-11.7999-6.59-17.98c9.55-10.6599,21.03-19.3199,32.24-28.1399c10.04-7.91,21.2-14.16,32.1799-20.6201
	c14.03-7.5699,28.9501-13.28,43.2001-20.4099l-0.12-0.15c2.49-1.0699,5.1399-2.03,7.3101-3.6901c1.8799-0.5699,3.7-1.33,5.46-2.22
	c12.8799-6.49,26.0599-12.61,37.8199-21.0601c4.67-3.6499,9.34-7.3199,13.9501-11.0499c10.0699-7.76,18.5499-17.65,30.1299-23.3099
	c7.1801-2.01,15.0601-2.5701,21.5601-6.52c1.49-0.64,2.99-1.29,4.4-2.1201c8.35-5.25,17.75-8.6699,26.1-13.8899
	c1.62-0.65,3.25-1.3401,4.79-2.1899c20.08-11.77,38.24-26.52,55.73-41.79l0.51-0.1001c11.02-9,22.4299-17.51,33.8099-26.0599
	c14.39-10.75,27.3301-23.27,39.8101-36.15c2.3199-3.39,6.6-4.08,10-5.96c3.86-2.0901,8-3.74,11.5499-6.38
	c1.24-0.33,2.3201-1.17,3.4501-1.83c7.6-4.91,16.22-7.99,24.9299-10.3c4.11-1.21,8.0701-3.5601,10.65-7.03
	c2.39-3.4199-0.0699-7.3999-0.35-11.03c4.55-4.8999,8.0599-10.75,13.3099-15.01c4.14-3.8599,8.92-7.23,12.14-11.95
	c2.11-2.8301,1.5-6.4199,0.77-9.6c1.91-1.39,3.76-2.89,5.55-4.4401c9.3099-7.47,18.3099-15.3199,27.0699-23.4299
	c4.9-5.1101,9.64-10.72,12.01-17.49C1308.3199,134.6799,1307.27,130.1699,1304.02,131.99z M827.36,226.05l0.12,1.1499
	c-2.09-1.76-4.26-3.46-6.75-4.6199c-0.3201-0.7401-0.63-1.4601-0.9399-2.1802c-0.1301-1.72-0.22-3.4399-0.27-5.1599
	C823.26,217.86,826.0801,221.6599,827.36,226.05z M756.1799,192.46c3.5901,1.1201,6.1801,3.9399,8.75,6.53
	c1.52,1.3401,3.4701,3.27,5.7001,2.0701c1.09,1.83,2.4401,3.49,4.12,4.8398c-4.25-1.0798-7.1699-4.5-10.64-6.9199
	c-2.36-2.0701-5.46-2.8201-8.2899-3.98c-0.77-0.3201-1.54-0.63-2.29-0.9299C754.1899,193.6699,755.52,192.86,756.1799,192.46z
	 M274.85,681.22c-2.9-0.84-5.91-1.1799-8.86-1.74c2.26-0.76,4.34-2.0601,5.46-4.23c2.34-2.6799,4.08-7.5801,8.24-7.3
	c0.31,0.42,0.93,1.26,1.23,1.6801C279.25,673.6699,277.07,677.46,274.85,681.22z M404.99,866.97c3.38-2.79,6.8-5.52,10.12-8.37
	c0.28,0.69,0.84,2.06,1.11,2.75C412.28,862.78,408.31,864.35,404.99,866.97z M662.1599,237.36
	c-0.5399-0.0499-1.6399-0.13-2.1899-0.17c2.95-3.51,7.6101-6.1299,12.25-4.48C668.74,233.97,665.4299,235.62,662.1599,237.36z"/>
</svg>
